<svg width="30" height="32" viewBox="0 0 30 32" fill="none" xmlns="http://www.w3.org/2000/svg">
<path d="M18.4782 31.414C18.223 31.1175 17.8814 30.9098 17.6644 30.5736C17.4061 30.3014 17.2857 29.8876 17.0382 29.6044C16.7721 28.8019 16.395 28.1148 16.2242 27.2136C15.9372 26.4113 15.807 25.4467 15.598 24.5642C15.4505 23.6393 15.3655 22.6512 15.0968 21.8502C14.8834 21.9742 14.9206 22.3568 14.7842 22.5608C14.7511 22.8719 14.6504 23.1127 14.5959 23.4014C14.4778 23.9467 14.3706 24.5042 14.2833 25.0812C14.0624 26.21 13.8699 27.3688 13.5943 28.4406C13.6179 28.808 13.5968 29.1771 13.5315 29.5391C13.3592 30.1965 13.0612 30.8118 12.6552 31.3486C12.0979 31.6872 11.4804 31.907 10.8393 31.9949C9.78981 31.9391 8.79266 31.5044 8.0221 30.7669C7.93427 30.5122 7.77822 30.3291 7.70898 30.0558C7.59428 29.8294 7.55399 29.5268 7.4584 29.2807C7.3809 28.6715 7.21246 28.1558 7.20807 27.4714C7.09543 26.2898 6.94638 24.8196 7.08252 23.5942C7.0027 20.776 7.36178 18.4113 7.58344 15.9048C7.5279 15.8467 7.45428 15.8699 7.35972 15.8928C7.2696 15.9197 7.17452 15.9238 7.08252 15.9048C6.91307 15.8883 6.74218 15.9104 6.58186 15.9693C6.21863 16.0043 5.85645 16.0392 5.51724 16.0987H3.1379C2.51665 16.0264 1.90663 15.8741 1.32203 15.6454C1.27889 15.5177 1.15564 15.4732 1.00916 15.4516C0.715171 15.0879 0.356601 14.7901 0.132877 14.3533C-0.0197709 13.7189 -0.0411721 13.0583 0.070089 12.4147C0.240759 12.0672 0.451003 11.7419 0.696328 11.4458C0.86735 11.3634 0.946397 11.1864 1.07195 11.0582C1.12672 10.8563 1.36724 10.8449 1.44732 10.6697C1.94527 10.4279 2.47163 10.2542 3.01311 10.153H4.07722C5.07004 9.98431 6.07684 9.91946 7.08227 9.95941H7.89631C7.93997 10.0541 8.09058 10.0394 8.24068 10.0239C8.39077 10.0085 8.54139 9.99407 8.58505 10.0887C8.80607 10.0693 9.02861 10.0956 9.23967 10.166C9.44966 10.2518 9.67988 10.2698 9.9 10.2178C10.2069 9.95488 9.745 9.80103 9.64967 9.57147C9.43664 9.40573 9.24706 9.2101 9.08647 8.99024C8.75571 8.56565 8.4623 8.11149 8.20968 7.63313C8.07931 7.16944 7.99539 6.69315 7.95931 6.21177C7.9154 5.92915 8.06576 5.84756 8.0221 5.5652C8.07894 5.23646 8.24118 5.01597 8.27243 4.66029C9.53004 2.2319 11.4896 0.527646 14.5956 0.00773275C14.7865 0.0130652 14.9746 0.0101324 15.1588 0.00773275C15.5358 -0.0132426 15.9138 0.00848661 16.2862 0.072525C16.4032 0.0991872 16.5409 0.167441 16.6618 0.202101C16.7745 0.234363 16.9292 0.224767 17.0377 0.266894C17.076 0.281558 17.1323 0.382335 17.163 0.395933C17.1847 0.401736 17.2075 0.401736 17.2291 0.395933C17.2485 0.392233 17.2684 0.392233 17.2878 0.395933C17.3536 0.41273 17.3167 0.443399 17.3506 0.460196C17.6592 0.600681 17.9529 0.77394 18.2268 0.977176C18.3175 1.04916 18.3899 1.15714 18.4775 1.23606C18.6385 1.37124 18.7857 1.52312 18.9166 1.68932C18.9662 1.75278 19.0579 1.81757 19.1042 1.88289C19.1204 1.90609 19.0835 1.99434 19.1042 2.0122C19.1545 2.04537 19.1972 2.0894 19.2295 2.14125C19.4536 2.46329 19.6425 2.80996 19.7927 3.17494C19.8578 3.35704 19.9182 3.58847 19.9807 3.82123C20.191 4.59972 20.2964 5.4044 20.2939 6.21257C20.2592 7.24833 20.0024 8.26328 19.5421 9.18434C19.5664 9.29792 19.6082 9.25712 19.6622 9.21633C19.7002 9.1878 19.7444 9.15901 19.7914 9.18434H20.1672C20.2189 9.11848 20.3331 9.11901 20.4483 9.11981C20.5635 9.12061 20.6808 9.12115 20.7307 9.05503C21.1501 9.0358 21.5681 8.99281 21.9829 8.92625C22.8305 8.85293 23.7484 8.85266 24.6753 8.86173C26.3406 9.14594 27.91 9.52828 28.5572 10.8646C28.674 11.2841 28.7163 11.7221 28.682 12.1572C28.5039 12.825 28.183 13.4432 27.7429 13.9662C26.6234 14.9643 25.1 15.5459 23.1728 15.711C22.8667 15.7038 22.5497 15.7075 22.233 15.711C21.6271 15.7348 21.0204 15.713 20.4176 15.6459C20.5863 16.7425 20.9418 17.6456 21.1063 18.7475C21.2288 19.2459 21.3988 19.6956 21.482 20.2342C21.6042 20.431 21.6153 20.7427 21.7323 20.9448C21.8075 21.1693 21.8302 21.4471 21.9826 21.5911C22.4735 23.5843 22.948 25.5923 22.9845 28.0527C22.9222 29.001 22.6528 29.7348 22.4833 30.5728C22.0693 31.2096 21.4808 31.7046 20.7929 31.9947C20.7254 31.9982 20.6597 32 20.5956 32C19.7012 32.0008 19.1248 31.671 18.4782 31.414ZM21.0454 30.3155C21.3691 29.7233 21.4879 28.92 21.6093 28.1185C21.6336 27.4253 21.5099 26.8857 21.4838 26.245H21.3585C21.1877 26.3265 21.1089 26.5041 20.9831 26.6324C20.8302 27.4008 20.5527 28.0407 19.856 28.2478H19.5428C19.2175 28.112 18.9508 27.8595 18.7916 27.5367C18.705 27.3677 18.5074 27.3144 18.4788 27.0835C18.2819 27.0275 18.3395 26.7102 18.1031 26.6961C17.8771 26.9464 18.0695 27.3784 18.2281 27.6005C18.316 27.9407 18.5105 28.1705 18.604 28.5049C18.9289 29.0392 19.3067 29.5374 19.7312 29.9913C19.8936 30.0444 20.0433 30.1324 20.1704 30.2496C20.2344 30.2435 20.2951 30.2408 20.3533 30.2408C20.5851 30.2534 20.8161 30.2783 21.0454 30.3155ZM10.7848 30.2512C11.0551 30.2839 11.329 30.2618 11.5911 30.1862C11.8048 30.0835 11.7864 29.742 11.9665 29.6044C11.9906 29.4699 12.0329 29.3395 12.092 29.217C12.1491 29.1037 12.1132 28.8947 12.2173 28.8296C12.2992 28.2462 12.6327 27.9231 12.7182 27.3429C12.5426 27.2024 12.3753 27.051 12.2173 26.8897H11.6536C11.0643 27.3586 11.0398 28.4107 10.026 28.4406C9.79974 28.4369 9.72251 28.2806 9.52513 28.247C9.38042 28.0443 9.25465 27.8279 9.14951 27.6007C8.94284 27.4674 9.01622 27.0488 8.71034 27.0192C8.62871 27.316 8.85267 27.8063 8.89814 28.182C9.01052 28.5819 9.18231 28.9242 9.27351 29.3452C9.46055 29.5399 9.58351 29.8006 9.77442 29.9913C9.95995 30.0321 10.1324 30.121 10.2754 30.2496C10.3407 30.244 10.4094 30.2422 10.4802 30.2422C10.5797 30.2432 10.6822 30.2472 10.7848 30.2512ZM9.2743 26.3089C9.54931 26.7017 9.80036 27.1118 10.026 27.5367C10.3642 27.4338 10.4043 27.0232 10.5895 26.7614C10.7449 26.4587 10.9849 26.2111 11.2782 26.0509C11.58 25.9439 11.8992 25.9 12.2176 25.9215C12.3537 25.9143 12.4885 25.9522 12.6022 26.0298C12.7368 26.1058 12.8521 26.182 12.9688 26.1154C13.0838 25.0489 13.3822 24.1717 13.5323 23.1428C13.6803 22.7141 13.7746 22.2294 13.9079 21.7857C14.1161 21.3975 14.1998 20.8792 14.5344 20.6227H15.2229C15.6498 20.906 16.0127 21.2807 16.287 21.7214C16.604 22.3421 16.752 23.1377 16.976 23.8544C17.0995 24.6748 17.4593 25.2513 17.6022 26.0517C17.7084 26.1151 17.8287 26.0442 17.9579 25.9735C18.1018 25.8935 18.2566 25.816 18.4162 25.9223C18.7627 25.9954 18.8495 26.3361 19.105 26.5036C19.3021 26.7526 19.4052 27.0987 19.7935 27.1499C19.8482 26.775 20.0598 26.5633 20.1693 26.2458C20.4535 26.1511 20.5452 25.8581 20.7328 25.664C20.8524 25.6373 20.8898 25.5248 21.0459 25.5349C21.0658 25.3827 21.3427 25.4965 21.2965 25.2761C20.994 23.5851 20.6661 21.9206 20.2318 20.3654C19.9655 19.5859 19.7563 18.7868 19.6059 17.9749C19.3085 17.168 19.1393 16.3168 19.1047 15.4542C19.1776 15.4436 19.1729 15.3521 19.1672 15.2607C19.2556 15.1377 19.3611 15.0289 19.4803 14.9378C19.6095 14.9631 19.6387 14.8845 19.6679 14.8082C19.6971 14.7319 19.7265 14.6533 19.8557 14.6792C20.3932 14.5842 20.938 14.5409 21.4832 14.5498C21.6243 14.4101 21.4316 14.3293 21.4832 14.0966C21.5736 13.9595 21.6373 13.8055 21.6708 13.6433C21.9716 13.4096 22.3111 13.2343 22.6726 13.1261C22.5977 12.4494 22.1211 12.1876 22.0467 11.5109C22.15 11.4248 22.0676 11.1448 22.1717 11.0576C22.1914 10.9422 22.5029 10.8043 22.297 10.6692C22.28 10.7598 22.1632 10.7473 22.0462 10.735C21.9842 10.7241 21.9209 10.7241 21.8589 10.735C21.6983 10.7938 21.5273 10.8157 21.3577 10.7993C20.3664 10.7022 19.2334 10.7523 18.3524 10.5414C18.0771 10.3215 17.8614 10.0321 17.7262 9.70105C17.8554 9.68452 17.7435 9.41684 17.8518 9.37818C17.8221 9.17554 18.0199 9.20727 18.0396 9.05476C18.2643 8.94305 18.3514 8.68762 18.5402 8.53778C18.8384 7.90863 19.0291 7.23105 19.1039 6.53492C19.1486 5.81819 19.0854 5.09865 18.9164 4.40194C18.9063 4.36141 18.927 4.31261 18.9164 4.27235C18.8585 4.05666 18.6903 3.66393 18.6658 3.56154C18.6418 3.46779 18.5994 3.38013 18.5413 3.30398C18.4774 3.17761 18.4343 3.04802 18.3534 2.91631C18.2575 2.75936 18.1531 2.60804 18.0408 2.46306C17.9319 2.31793 17.8057 2.18751 17.6652 2.07486C17.5862 2.0082 17.4867 1.86902 17.4146 1.81677C17.3426 1.76451 17.1912 1.73864 17.1015 1.68772C17.0005 1.61762 16.896 1.55284 16.7887 1.49362C16.2728 1.27362 15.7192 1.16378 15.1611 1.17074C15.1151 1.16493 15.0686 1.17618 15.0299 1.20247C14.9945 1.22643 14.9525 1.23802 14.9103 1.23553C13.2385 1.31952 12.1809 2.03727 11.1537 2.78621C10.2338 3.66793 9.29365 4.52725 9.02497 6.08192C9.01931 6.43093 9.06141 6.77902 9.15001 7.11588C9.36417 7.60223 9.63774 8.0583 9.96405 8.47299C10.1395 8.65829 10.242 8.91851 10.465 9.05422C10.5996 9.28165 10.8502 9.38937 10.9042 9.70079C10.8447 10.3724 10.5756 10.8265 10.0901 11.0579C9.40856 11.1213 8.72238 11.1092 8.04329 11.0219C7.39326 10.9313 6.73503 10.9215 6.08274 10.9928C5.96055 12.0239 6.93036 11.9276 7.02182 12.7376V13.1909C6.80068 13.867 6.11941 14.0686 5.33146 14.1598C5.37175 14.3045 5.44344 14.438 5.54105 14.5499C5.63867 14.6619 5.75966 14.7495 5.89492 14.8061C6.16767 14.8128 6.44039 14.7912 6.70895 14.7415C7.45168 14.7032 8.375 14.6333 8.71239 14.9996C8.72582 15.0722 8.78189 15.1004 8.83743 15.129C8.84283 16.1874 8.78018 17.2452 8.64989 18.2951C8.53596 19.3461 8.49641 20.3665 8.39927 21.4615C8.44241 23.033 8.2908 24.8049 8.5246 26.1783C8.57958 26.1708 8.63498 26.167 8.69044 26.1668C8.89193 26.1763 9.08994 26.2245 9.2743 26.3089ZM3.38876 11.1883C3.15626 11.2928 2.82584 11.2965 2.57473 11.3821C2.25697 11.42 2.09135 11.6154 1.82345 11.705C1.57881 11.9715 1.34898 12.2521 1.13499 12.5454C1.04243 12.9486 1.04243 13.3686 1.13499 13.7718C1.6199 14.8005 2.97152 14.9348 4.51589 14.8701C4.349 14.4893 4.53164 14.0662 4.64118 13.7718C4.9592 13.3031 5.83241 13.4076 6.20649 12.9965C6.18066 12.6574 5.88716 12.5939 5.70529 12.4147C5.53197 12.2202 5.38431 12.0029 5.26612 11.7684C5.20133 11.5379 5.18 11.2967 5.20333 11.0579H5.01579C4.92382 11.1499 4.72903 11.1363 4.53424 11.1229C4.42371 11.1111 4.31229 11.1111 4.20176 11.1229C4.10979 11.2152 3.91499 11.2029 3.7202 11.1883C3.65071 11.1835 3.5812 11.1787 3.51636 11.1787C3.47364 11.1785 3.431 11.1817 3.38876 11.1883ZM23.0486 11.5117C23.2234 12.1494 23.7125 12.463 23.7373 13.2562C23.6252 13.9158 23.0769 14.1254 22.4223 14.2256C22.4244 14.4597 22.6068 14.5096 22.8615 14.4835C22.9868 14.3768 23.3265 14.4893 23.425 14.3547C23.6245 14.3515 23.8224 14.3184 24.0127 14.2563C24.2272 14.1852 24.452 14.1529 24.6771 14.1608C24.8022 14.0099 25.1163 14.0542 25.2406 13.9022C25.5506 13.9206 25.6141 13.6849 25.8668 13.6441C26.2213 13.4153 26.5564 13.1558 26.8684 12.8685C27.0076 12.3886 27.2083 11.97 27.1815 11.3176C26.7519 10.5977 25.7227 10.4972 24.6144 10.4777C24.6061 10.3857 24.5741 10.422 24.5234 10.4583C24.5023 10.4785 24.4754 10.4912 24.4468 10.4947C24.4181 10.4982 24.3892 10.4923 24.364 10.4777H23.9248C23.8641 10.7072 23.7537 10.9195 23.6019 11.0986C23.4502 11.2777 23.2608 11.4189 23.0486 11.5117ZM24.4263 30.3155C24.1546 30.0629 23.9773 29.7199 23.9253 29.3463C23.9735 29.1267 24.0362 28.9108 24.1129 28.7C24.3279 28.6422 24.3852 28.4206 24.6766 28.4414C24.6653 28.3867 24.7009 28.3806 24.7394 28.3771H25.1147C25.1251 28.4529 25.2289 28.4305 25.3026 28.4414C25.6922 28.7504 26.0401 29.1024 25.9913 29.8633C25.9182 29.8737 25.9397 29.9809 25.9291 30.0563C25.7983 30.2453 25.6268 30.4005 25.4281 30.5096C25.3816 30.5138 25.3374 30.5157 25.2948 30.5157C24.9982 30.4879 24.7061 30.4206 24.4263 30.3155ZM24.9272 29.0232C24.8448 29.089 24.6962 29.0866 24.6141 29.1525C24.5598 29.6393 24.7727 29.8502 25.1778 29.8636C25.3113 29.5929 25.2783 29.0229 24.9435 29.0229L24.9272 29.0232ZM3.57681 29.4108C3.81397 29.0304 4.43192 29.1479 4.64118 29.4754C4.69517 29.919 4.57326 30.1808 4.32809 30.3155C4.28607 30.3192 4.24576 30.3211 4.20718 30.3211C3.70316 30.3211 3.50577 30.0057 3.57681 29.4108ZM27.3065 29.0877C26.941 27.7279 27.9379 26.9091 29.1847 27.2139C29.288 27.3232 29.3206 27.5042 29.435 27.6015C29.4599 27.787 29.4448 27.9758 29.3907 28.1545C29.3366 28.3332 29.2449 28.4974 29.1222 28.6352C28.8767 28.5976 28.962 28.9018 28.809 28.9581C28.7574 29.1202 28.5895 29.1631 28.4962 29.2815C28.3492 29.3272 28.1965 29.3501 28.0431 29.3495C27.9094 29.3596 27.7752 29.3414 27.6486 29.2962C27.5219 29.2509 27.4055 29.1795 27.3065 29.0864V29.0877ZM28.1828 27.9895C28.0932 28.242 27.7548 28.2361 27.8075 28.6355C27.8676 28.6506 27.93 28.6532 27.991 28.6432C28.0521 28.6331 28.1107 28.6105 28.1632 28.5768C28.2444 28.5256 28.3386 28.5009 28.4337 28.5059C28.5339 28.2438 28.809 28.1609 28.8093 27.7954H28.7907C28.5251 27.7951 28.4156 27.9559 28.1828 27.9892V27.9895ZM0.948204 27.3429C0.921079 26.9678 1.32899 26.6713 1.57416 26.8897C1.63435 26.943 1.74544 26.9219 1.82449 26.9544C1.85239 27.2272 2.07147 27.3029 2.01257 27.6655C1.93913 27.7614 1.85503 27.848 1.76199 27.9236H1.71856C1.54366 27.9402 1.36891 27.8904 1.22708 27.7835C1.08524 27.6766 0.986091 27.5199 0.948204 27.3429ZM3.70289 26.5028C3.6706 26.0818 3.9132 25.945 4.32913 25.9861C4.50713 26.1682 4.7187 26.3162 4.70475 26.6972C4.64353 26.6988 4.65643 26.7771 4.64222 26.8257C4.5488 26.9049 4.43117 26.9474 4.31024 26.9456C4.17653 26.9475 4.04569 26.9057 3.93641 26.8261C3.82713 26.7466 3.74501 26.6334 3.70185 26.5028H3.70289ZM25.4294 26.6324C25.2338 26.4604 25.0849 26.239 24.9971 25.9898C24.9093 25.7406 24.8856 25.4722 24.9285 25.2107C25.0504 25.0774 25.124 24.8953 25.3677 24.8879C25.356 24.8329 25.3922 24.8268 25.4302 24.8233H26.0562C26.4522 25.0828 26.8116 25.379 26.8079 26.0511C26.7814 26.1841 26.7287 26.31 26.6532 26.4212C26.5776 26.5324 26.4808 26.6264 26.3687 26.6974C26.2843 26.6998 26.2003 26.7014 26.1182 26.7014C25.8863 26.7083 25.6545 26.6855 25.4281 26.6334L25.4294 26.6324ZM25.4922 25.5339C25.3788 25.7704 25.7027 26.0671 25.9929 25.9215C26.0148 25.8721 26.0243 25.8177 26.0205 25.7635C26.0167 25.7093 25.9997 25.6569 25.971 25.6112C25.9424 25.5656 25.9031 25.5281 25.8567 25.5024C25.8103 25.4766 25.7583 25.4633 25.7056 25.4638C25.6287 25.464 25.5537 25.4884 25.4907 25.5339H25.4922ZM28.9982 23.4665C28.9518 23.2496 28.9737 23.023 29.0609 22.8199C29.3818 22.5416 29.9494 22.6421 30 23.1428C30.0006 23.2864 29.9497 23.4251 29.8573 23.5324C29.7648 23.6396 29.6373 23.7079 29.4991 23.724C29.4819 23.7259 29.4647 23.7269 29.4474 23.727C29.212 23.7272 29.1555 23.5435 28.9969 23.4662L28.9982 23.4665ZM17.3526 23.2724C17.2121 22.4725 18.3191 22.0913 18.6048 22.6906C18.603 22.7946 18.581 22.8971 18.5401 22.9922C18.4993 23.0872 18.4403 23.1729 18.3669 23.244C18.2934 23.3152 18.2068 23.3704 18.1123 23.4065C18.0178 23.4425 17.9173 23.4587 17.8166 23.454C17.6445 23.4578 17.4778 23.3926 17.3513 23.2721L17.3526 23.2724ZM3.13972 22.4968C3.23764 21.4404 4.74632 21.1637 5.4565 21.915C5.45308 21.9657 5.46291 22.0164 5.48495 22.0619C5.50699 22.1073 5.54045 22.1458 5.58183 22.1734C5.62472 22.5381 5.53554 22.9063 5.33146 23.2073C5.12205 23.2968 4.89758 23.3427 4.67092 23.3422C4.36721 23.3454 4.0676 23.2696 3.79977 23.1218C3.53194 22.974 3.30451 22.759 3.13843 22.4965L3.13972 22.4968ZM4.62828 22.588C4.72464 22.6216 4.80292 22.6549 4.89334 22.5613C4.90729 22.4395 4.82228 22.4189 4.83055 22.3035C4.72644 22.3045 4.62254 22.2941 4.52055 22.2726C4.35469 22.2198 4.17593 22.2308 4.0173 22.3035C3.98966 22.5469 4.34461 22.3965 4.39318 22.5613C4.41639 22.5564 4.44003 22.5539 4.46372 22.5538C4.5195 22.5557 4.57459 22.5672 4.62673 22.5877L4.62828 22.588ZM10.9662 22.4323C10.7719 22.0945 10.3859 21.9545 10.4652 21.3338C10.5492 21.257 10.6515 21.2046 10.7615 21.1819C10.8715 21.1592 10.9853 21.167 11.0915 21.2045C11.333 21.5585 11.8461 21.6311 11.843 22.2384C11.8213 22.4747 11.6285 22.5341 11.4671 22.6258C11.445 22.6296 11.4228 22.6316 11.4004 22.6317C11.1899 22.6317 11.1677 22.4389 10.9646 22.432L10.9662 22.4323ZM18.9804 20.1705C18.9719 19.6935 19.678 19.4653 19.857 19.9119C19.8687 19.9839 19.8645 20.0577 19.8448 20.1278C19.825 20.1979 19.7902 20.2625 19.7429 20.3167C19.6956 20.371 19.637 20.4136 19.5716 20.4412C19.5061 20.4689 19.4355 20.481 19.3648 20.4766C19.2753 20.4835 19.1865 20.4561 19.1153 20.3996C19.0442 20.3431 18.9957 20.2616 18.9791 20.1705H18.9804ZM13.8462 19.2656C13.7812 18.9036 13.7603 18.5347 13.7839 18.1674C13.9231 18.0314 13.9562 17.785 14.1593 17.7141C14.2719 17.5504 14.5034 17.5088 14.6602 17.3912C14.6899 17.3912 14.7204 17.3912 14.7509 17.3926C14.8914 17.396 15.0322 17.3992 15.0983 17.3264C15.4541 17.3558 15.7877 17.5168 16.0377 17.7797C16.4551 18.8403 15.7264 19.649 14.7858 19.7183C14.6076 19.7111 14.4327 19.6674 14.2712 19.5897C14.1096 19.5119 13.9647 19.4018 13.8449 19.2656H13.8462ZM14.5354 18.8123C14.9702 18.8302 15.2505 18.6889 15.3495 18.3591C15.2674 18.3308 15.1813 18.3169 15.0947 18.318C14.8064 18.3199 14.4838 18.4577 14.5339 18.8134L14.5354 18.8123ZM9.77676 18.1012C9.77134 18.0319 9.78059 17.9622 9.80385 17.897C9.8271 17.8317 9.8638 17.7724 9.91145 17.7233C9.95909 17.6741 10.0165 17.6362 10.0798 17.6122C10.143 17.5882 10.2105 17.5787 10.2777 17.5843C10.567 17.7597 10.8613 17.9309 10.9664 18.2951C10.9589 18.5457 10.7817 18.6217 10.6536 18.7483C10.464 18.7333 10.282 18.6651 10.1272 18.5511C9.97239 18.4371 9.85068 18.2817 9.77521 18.1015L9.77676 18.1012ZM9.96458 16.3567C9.95373 16.0653 9.9341 15.7651 10.2149 15.7752C10.5614 15.7406 10.6298 15.9933 10.8411 16.0981C10.9811 16.2768 11.1671 16.4082 11.0915 16.8089C10.9912 16.8932 10.8658 16.9391 10.7365 16.939C10.5684 16.9252 10.4072 16.8636 10.271 16.761C10.1347 16.6585 10.0286 16.519 9.96433 16.3581L9.96458 16.3567ZM13.9092 16.5506C13.7346 16.4832 13.5801 16.3698 13.4612 16.2217C13.3423 16.0736 13.263 15.8958 13.2314 15.7062C13.1997 15.5167 13.2168 15.3218 13.2808 15.1411C13.3448 14.9605 13.4536 14.8003 13.5963 14.6765C14.0593 14.2499 15.0849 14.0507 15.537 14.612C15.5336 14.6626 15.5435 14.7133 15.5655 14.7587C15.5875 14.8041 15.621 14.8425 15.6623 14.8701C15.7024 15.2551 15.614 15.6427 15.4117 15.9688C15.0759 16.257 14.755 16.5636 14.1381 16.5636C14.0611 16.564 13.9842 16.5601 13.9076 16.5519L13.9092 16.5506ZM14.097 15.5163C14.1758 15.6014 14.2249 15.5721 14.2946 15.543C14.3501 15.516 14.4121 15.5067 14.4726 15.5163C14.4876 15.3169 14.7842 15.4076 14.7227 15.129C14.4698 15.2145 14.1182 15.1969 14.0955 15.5177L14.097 15.5163ZM16.7267 15.1935C17.1317 14.7402 17.613 15.2892 17.6032 15.8398C17.5133 15.9408 17.4456 16.0645 17.2901 16.0981C16.8378 16.0693 16.7011 15.7147 16.7251 15.1953L16.7267 15.1935ZM12.7198 12.6088C12.6306 11.4394 13.3114 11.0651 14.0973 10.799H14.5979C14.6514 10.8955 14.7997 10.8926 14.911 10.9283C15.0144 11.1022 15.1766 11.2147 15.2869 11.3816C15.5194 12.4121 14.9183 13.0429 14.1598 13.2557C14.1021 13.2598 14.0463 13.2618 13.9924 13.2618C13.7438 13.2731 13.4965 13.2192 13.2736 13.105C13.0508 12.9909 12.8596 12.8202 12.718 12.6091L12.7198 12.6088ZM13.5336 12.3499C13.6406 12.391 13.7553 12.4062 13.8689 12.3943C13.9825 12.3824 14.0919 12.3438 14.1887 12.2813C14.2856 12.2189 14.3672 12.1343 14.4273 12.0342C14.4875 11.934 14.5246 11.8209 14.5357 11.7037C14.484 11.6996 14.4347 11.6975 14.3876 11.6975C13.8911 11.6991 13.6069 11.9186 13.5318 12.3513L13.5336 12.3499ZM18.292 12.8032C18.3059 12.808 18.054 12.5824 18.0419 12.5454C17.9404 12.2444 18.0452 11.8575 18.5426 11.9636C18.6826 12.1425 18.8683 12.2732 18.7929 12.675C18.6744 12.7549 18.5392 12.8046 18.3984 12.82C18.3618 12.8203 18.3254 12.8148 18.2904 12.8035L18.292 12.8032ZM13.1579 9.57254C12.9953 9.47787 12.8281 9.39173 12.657 9.31445C12.2302 9.12355 11.5942 8.97984 11.5927 8.28049C11.694 8.16224 11.8233 8.07321 11.968 8.02214H12.0936C12.0711 8.10959 12.1452 8.09812 12.2186 8.08639C12.292 8.07466 12.3664 8.06319 12.3439 8.15091C12.3682 8.14578 12.3933 8.14643 12.4173 8.1528C12.4412 8.15918 12.4635 8.17111 12.4824 8.1877C12.5063 8.20833 12.5353 8.22185 12.5661 8.22678C12.5969 8.23171 12.6284 8.22788 12.6573 8.2157C12.7348 8.37114 12.9903 8.34608 13.0964 8.47432C13.6533 8.58492 14.2207 8.62823 14.7873 8.60337C15.4673 8.54658 16.04 8.05093 16.7905 8.28049C16.6871 9.29366 15.7659 9.46296 14.9121 9.70212C14.7915 9.70852 14.6742 9.71163 14.5602 9.71145C14.0892 9.70848 13.6194 9.66208 13.1564 9.5728L13.1579 9.57254ZM11.7177 6.66502C11.2994 6.23496 11.4206 5.24846 11.4048 4.40353C11.4868 4.26752 11.5301 4.11047 11.5299 3.95028C11.6908 3.94415 11.6195 3.69805 11.7804 3.69192C11.831 3.63281 11.8955 3.58826 11.9678 3.56261H12.4069C13.2675 4.06572 13.2946 6.51999 12.2191 6.79354C12.2057 6.79461 12.1928 6.79513 12.1804 6.79513C11.9822 6.79673 11.9034 6.67436 11.7161 6.66529L11.7177 6.66502ZM15.3495 3.8215C15.5137 3.65921 15.7043 3.52807 15.9126 3.4341C16.1743 3.37944 16.2084 3.55994 16.4136 3.56288C16.6034 3.83123 16.7319 4.14054 16.7892 4.46753V4.98477C16.6541 5.70678 16.5895 6.50212 15.9754 6.72955C14.725 6.69488 14.9568 4.66375 15.3479 3.82176L15.3495 3.8215Z" fill="black"/>
</svg>
