<svg width="344" height="406" viewBox="0 0 344 406" fill="none" xmlns="http://www.w3.org/2000/svg">
<path d="M280.223 189.272L313.955 173.464C335.043 167.623 347.614 145.253 341.892 123.751C336.163 102.25 314.222 89.4332 293.133 95.2745L240.308 132.495C235.604 134.697 230.54 130.484 231.631 125.328C232.91 119.288 245.805 118.19 245.805 87.9969C245.805 53.7965 238.928 0.105827 178.906 0.105827C115.886 0.105827 108.662 49.3033 108.662 88.4977C108.662 111.06 122.013 120.68 122.974 125.328C124.014 130.373 119.043 134.484 114.405 132.436L50.8725 91.3263C29.784 85.485 7.84306 98.3019 2.11399 119.811C-3.62231 141.312 8.94842 163.682 30.0369 169.524L73.4348 188.683C87.9634 197.758 115.67 221.181 102.492 262.092L66.9399 325.366C47.2313 330.191 33.0929 350.049 37.0953 372.287C40.5992 391.697 58.1332 405.235 77.5022 405.235H90.6003C91.1711 405.235 91.7274 405.169 92.2981 405.147C92.9122 405.118 93.5263 405.11 94.1331 405.051C96.1777 404.867 98.1644 404.499 100.108 404.005C100.606 403.88 101.105 403.755 101.596 403.615C103.525 403.04 105.382 402.318 107.181 401.471C107.751 401.206 108.308 400.934 108.864 400.639C110.504 399.77 112.064 398.775 113.56 397.693C114.21 397.221 114.846 396.75 115.467 396.234C116.84 395.107 118.126 393.87 119.34 392.566C119.896 391.969 120.445 391.38 120.965 390.739C122.229 389.207 123.364 387.557 124.404 385.848C124.599 385.524 124.859 385.274 125.04 384.942L165.302 326.788C171.147 318.346 183.429 318.346 189.273 326.788L229.536 384.942C229.724 385.274 229.976 385.524 230.171 385.848C231.212 387.564 232.339 389.207 233.61 390.739C234.131 391.373 234.68 391.969 235.236 392.566C236.45 393.87 237.736 395.1 239.108 396.234C239.73 396.742 240.365 397.221 241.016 397.693C242.511 398.783 244.072 399.77 245.712 400.639C246.268 400.934 246.824 401.199 247.395 401.471C249.194 402.318 251.05 403.048 252.979 403.615C253.478 403.762 253.969 403.88 254.468 404.005C256.411 404.499 258.398 404.867 260.442 405.051C261.056 405.11 261.663 405.118 262.277 405.147C262.863 405.169 263.419 405.235 263.99 405.235H277.088C296.45 405.235 313.991 391.697 317.487 372.28C321.497 350.042 307.359 330.183 287.643 325.359L252.091 262.085C239.195 222.036 265.478 198.745 280.223 189.272Z" fill="#A46F3E"/>
<path d="M177.295 280.014C187.27 280.014 195.356 271.769 195.356 261.599C195.356 251.428 187.27 243.184 177.295 243.184C167.32 243.184 159.234 251.428 159.234 261.599C159.234 271.769 167.32 280.014 177.295 280.014Z" fill="#ED3F32"/>
<path d="M177.295 213.72C187.27 213.72 195.356 205.475 195.356 195.305C195.356 185.134 187.27 176.89 177.295 176.89C167.32 176.89 159.234 185.134 159.234 195.305C159.234 205.475 167.32 213.72 177.295 213.72Z" fill="#88C057"/>
<path d="M202.581 66.3998C210.561 66.3998 217.03 59.804 217.03 51.6678C217.03 43.5315 210.561 36.9358 202.581 36.9358C194.601 36.9358 188.132 43.5315 188.132 51.6678C188.132 59.804 194.601 66.3998 202.581 66.3998Z" fill="#FFF5BB"/>
<path d="M152.009 66.3998C159.989 66.3998 166.458 59.804 166.458 51.6678C166.458 43.5315 159.989 36.9358 152.009 36.9358C144.029 36.9358 137.56 43.5315 137.56 51.6678C137.56 59.804 144.029 66.3998 152.009 66.3998Z" fill="#FFF5BB"/>
<path d="M177.295 120.724C158.07 120.525 137.56 107.524 137.56 88.4978C137.56 84.4244 140.789 81.1318 144.784 81.1318C148.78 81.1318 152.009 84.4244 152.009 88.4978C152.009 97.3517 164.334 105.852 177.374 105.992C190.061 105.992 202.581 97.3222 202.581 88.4978C202.581 84.4244 205.81 81.1318 209.805 81.1318C213.801 81.1318 217.03 84.4244 217.03 88.4978C217.03 107.487 196.093 120.724 177.295 120.724Z" fill="#FFF5BB"/>
<path d="M290.749 96.9539L278.764 105.395L313.572 173.649L313.955 173.472C318.643 172.175 322.877 170.025 326.612 167.284L290.749 96.9539Z" fill="#FFF5BB"/>
<path d="M207.653 353.327L279.241 310.398L272.059 297.611L199.294 341.247L207.653 353.327Z" fill="#FFF5BB"/>
<path d="M222.066 374.151L297.165 329.108C294.188 327.473 291.009 326.184 287.65 325.359L284.442 319.643L213.707 362.063L222.066 374.151Z" fill="#FFF5BB"/>
<path d="M158.894 336.054L82.74 297.235L75.5516 310.037L150.463 348.23L158.894 336.054Z" fill="#FFF5BB"/>
<path d="M136.91 367.809L145.362 355.603L70.5738 318.891L66.9399 325.366C63.6961 326.161 60.6256 327.399 57.743 328.946L136.91 367.809Z" fill="#FFF5BB"/>
<path d="M21.967 166.253C24.4956 167.608 27.1759 168.735 30.0369 169.524L35.3325 171.859L63.6744 99.613L51.2626 91.5841L21.967 166.253Z" fill="#FFF5BB"/>
</svg>
