<svg width="25" height="29" viewBox="0 0 25 29" fill="none" xmlns="http://www.w3.org/2000/svg">
<path d="M20.3984 13.5409L22.8602 12.4094C24.3993 11.9912 25.3167 10.3899 24.8991 8.8508C24.481 7.31169 22.8797 6.39424 21.3406 6.81236L17.4852 9.47667C17.142 9.63433 16.7724 9.33273 16.852 8.96364C16.9453 8.53127 17.8865 8.45271 17.8865 6.29142C17.8865 3.84329 17.3845 0 13.004 0C8.40469 0 7.87742 3.52165 7.87742 6.32727C7.87742 7.94231 8.85181 8.63093 8.92194 8.96364C8.99786 9.32482 8.6351 9.61904 8.2966 9.47245L3.65983 6.52975C2.12075 6.11162 0.519441 7.02907 0.10132 8.56871C-0.317328 10.1078 0.600113 11.7091 2.1392 12.1273L5.30648 13.4987C6.36681 14.1483 8.38887 15.825 7.42714 18.7535L4.83247 23.2828C3.39409 23.6281 2.36223 25.0497 2.65434 26.6415C2.91006 28.0309 4.18973 29 5.60333 29H6.55926C6.60092 29 6.64151 28.9953 6.68317 28.9937C6.72799 28.9916 6.7728 28.991 6.81709 28.9868C6.96631 28.9736 7.11131 28.9473 7.25314 28.9119C7.28952 28.903 7.3259 28.894 7.36176 28.884C7.50254 28.8429 7.63805 28.7912 7.76933 28.7306C7.81099 28.7116 7.85159 28.6921 7.89219 28.671C8.01188 28.6088 8.12577 28.5376 8.23491 28.4601C8.28236 28.4263 8.32876 28.3926 8.37411 28.3557C8.47429 28.275 8.56814 28.1864 8.65672 28.0931C8.69732 28.0504 8.73739 28.0082 8.77536 27.9623C8.86763 27.8527 8.95041 27.7345 9.02633 27.6122C9.04057 27.589 9.05955 27.5711 9.07273 27.5474L12.0112 23.3845C12.4377 22.7803 13.3341 22.7803 13.7606 23.3845L16.6991 27.5474C16.7128 27.5711 16.7313 27.589 16.7455 27.6122C16.8214 27.7351 16.9037 27.8527 16.9965 27.9623C17.0344 28.0077 17.0745 28.0504 17.1151 28.0931C17.2037 28.1864 17.2975 28.2745 17.3977 28.3557C17.4431 28.3921 17.4895 28.4263 17.5369 28.4601C17.6461 28.5381 17.7599 28.6088 17.8796 28.671C17.9202 28.6921 17.9608 28.7111 18.0025 28.7306C18.1338 28.7912 18.2693 28.8434 18.4101 28.884C18.4464 28.8945 18.4823 28.903 18.5187 28.9119C18.6605 28.9473 18.8055 28.9736 18.9547 28.9868C18.9996 28.991 19.0438 28.9916 19.0887 28.9937C19.1314 28.9953 19.172 29 19.2136 29H20.1696C21.5826 29 22.8628 28.0309 23.118 26.641C23.4106 25.0491 22.3788 23.6276 20.9399 23.2823L18.3452 18.753C17.404 15.8862 19.3222 14.219 20.3984 13.5409Z" fill="#A46F3E"/>
<path d="M12.8865 20.0364C13.6145 20.0364 14.2046 19.4462 14.2046 18.7182C14.2046 17.9902 13.6145 17.4 12.8865 17.4C12.1585 17.4 11.5683 17.9902 11.5683 18.7182C11.5683 19.4462 12.1585 20.0364 12.8865 20.0364Z" fill="#ED3F32"/>
<path d="M12.8865 15.2909C13.6145 15.2909 14.2046 14.7007 14.2046 13.9727C14.2046 13.2447 13.6145 12.6545 12.8865 12.6545C12.1585 12.6545 11.5683 13.2447 11.5683 13.9727C11.5683 14.7007 12.1585 15.2909 12.8865 15.2909Z" fill="#88C057"/>
<path d="M14.7319 4.74544C15.3143 4.74544 15.7864 4.27331 15.7864 3.6909C15.7864 3.10849 15.3143 2.63635 14.7319 2.63635C14.1495 2.63635 13.6773 3.10849 13.6773 3.6909C13.6773 4.27331 14.1495 4.74544 14.7319 4.74544Z" fill="#FFF5BB"/>
<path d="M11.041 4.74544C11.6234 4.74544 12.0955 4.27331 12.0955 3.6909C12.0955 3.10849 11.6234 2.63635 11.041 2.63635C10.4586 2.63635 9.98648 3.10849 9.98648 3.6909C9.98648 4.27331 10.4586 4.74544 11.041 4.74544Z" fill="#FFF5BB"/>
<path d="M12.8864 8.63408C11.4834 8.61984 9.98648 7.68921 9.98648 6.32726C9.98648 6.03568 10.2222 5.79999 10.5137 5.79999C10.8053 5.79999 11.041 6.03568 11.041 6.32726C11.041 6.96104 11.9405 7.56952 12.8922 7.57953C13.8181 7.57953 14.7319 6.95893 14.7319 6.32726C14.7319 6.03568 14.9676 5.79999 15.2591 5.79999C15.5507 5.79999 15.7864 6.03568 15.7864 6.32726C15.7864 7.68657 14.2584 8.63408 12.8864 8.63408Z" fill="#FFF5BB"/>
<path d="M21.1666 6.93259L20.2919 7.53684L22.8322 12.4226L22.8602 12.4099C23.2024 12.3171 23.5113 12.1631 23.7839 11.967L21.1666 6.93259Z" fill="#FFF5BB"/>
<path d="M15.102 25.2843L20.3267 22.2114L19.8026 21.296L14.492 24.4196L15.102 25.2843Z" fill="#FFF5BB"/>
<path d="M16.1539 26.7749L21.6348 23.5507C21.4176 23.4336 21.1856 23.3413 20.9404 23.2823L20.7063 22.8731L15.5439 25.9097L16.1539 26.7749Z" fill="#FFF5BB"/>
<path d="M11.5435 24.0478L5.9856 21.2691L5.46098 22.1855L10.9282 24.9194L11.5435 24.0478Z" fill="#FFF5BB"/>
<path d="M9.93901 26.3209L10.5559 25.4472L5.09767 22.8193L4.83246 23.2828C4.59571 23.3397 4.37163 23.4283 4.16125 23.539L9.93901 26.3209Z" fill="#FFF5BB"/>
<path d="M1.55025 11.8932C1.73479 11.9902 1.93041 12.0709 2.1392 12.1273L2.52569 12.2944L4.59415 7.12295L3.68831 6.54822L1.55025 11.8932Z" fill="#FFF5BB"/>
</svg>
